<svg id="图层_1" data-name="图层 1" xmlns="http://www.w3.org/2000/svg" viewBox="0 0 132.29 75.17"><defs><style>.cls-1{fill:#fff;}</style></defs><title>2020</title><polygon class="cls-1" points="70.64 22.82 81.18 24.74 81.18 75.17 88.97 75.17 88.97 0 70.64 22.82"/><polygon class="cls-1" points="110.12 26.56 108.25 36.8 107.1 36.8 107.1 44.36 132.29 44.36 110.12 26.56"/><path class="cls-1" d="M89,75.17H81.47V58.91a22.12,22.12,0,0,1,22.12-22.13H113v7.58h-9.44A14.55,14.55,0,0,0,89,58.91Z"/><path class="cls-1" d="M71.45,75.05H0V45H71.45Zm-69-2.45H69V47.45H2.45Z"/><path class="cls-1" d="M20.52,53.32a13.74,13.74,0,0,1-.29,2.42L19.82,58c-.31,1.82-.67,2.07-2.46,2.58l-3.66,1c-1.81.52-1.88.63-2.11,1.91l-.42,2.4h7.64l-1,2.49H8l.87-5c.54-3,.85-3.14,4.28-4.13l2.51-.71c1.26-.36,1.42-.54,1.57-1.39l.27-1.53a9.4,9.4,0,0,0,.16-1.1c0-.58-.36-.67-1.52-.67H11l-.45-2.47h6.7c2.56,0,3.28.5,3.28,1.89"/><path class="cls-1" d="M21.82,65.22a15.28,15.28,0,0,1,.31-2.75l1.21-6.8c.61-3.43,1.73-4.37,5-4.37H30.9c3.14,0,4.48.83,4.48,3.34a17.87,17.87,0,0,1-.33,2.74l-1.21,6.81c-.61,3.43-1.66,4.37-5,4.37h-2.6c-3.12,0-4.46-.85-4.46-3.34m6.77.9c1.8,0,2.15-.7,2.54-2.94L32,58.29a24.25,24.25,0,0,0,.45-3.13c0-1.24-.76-1.42-2.64-1.42H28.59c-1.79,0-2.11.7-2.51,2.94l-.85,4.87a24.59,24.59,0,0,0-.45,3.16c0,1.23.78,1.41,2.67,1.41Z"/><path class="cls-1" d="M48.61,53.32a13.74,13.74,0,0,1-.29,2.42L47.92,58c-.31,1.82-.67,2.07-2.47,2.58l-3.65,1c-1.82.52-1.88.63-2.11,1.91l-.42,2.4h7.64l-1,2.49H36.1l.88-5c.54-3,.85-3.14,4.28-4.13l2.51-.71c1.26-.36,1.41-.54,1.57-1.39l.27-1.53a9.4,9.4,0,0,0,.16-1.1c0-.58-.36-.67-1.53-.67H39.09l-.45-2.47h6.7c2.56,0,3.27.5,3.27,1.89"/><path class="cls-1" d="M49.92,65.22a14.39,14.39,0,0,1,.31-2.75l1.21-6.8c.61-3.43,1.73-4.37,5-4.37H59c3.14,0,4.48.83,4.48,3.34a17.87,17.87,0,0,1-.33,2.74l-1.22,6.81c-.6,3.43-1.65,4.37-5,4.37h-2.6c-3.12,0-4.46-.85-4.46-3.34m6.77.9c1.79,0,2.15-.7,2.53-2.94l.83-4.89a24.25,24.25,0,0,0,.45-3.13c0-1.24-.76-1.42-2.65-1.42H56.69c-1.8,0-2.11.7-2.51,2.94l-.85,4.87a24.59,24.59,0,0,0-.45,3.16c0,1.23.78,1.41,2.66,1.41Z"/></svg>