<svg id="图层_1" data-name="图层 1" xmlns="http://www.w3.org/2000/svg" viewBox="0 0 167.65 75.26"><defs><style>.cls-1{fill:#fff;}</style></defs><title>action-now</title><path class="cls-1" d="M46.2,59.75a20.42,20.42,0,0,1-.37,3.43l-2.1,11.91h-3.4l1.28-7.27H34.78l-1.29,7.27H30.16l2.42-13.6c.88-4.92,2.07-5.65,7.29-5.65h.81c4.09,0,5.52,1.06,5.52,3.91m-4.11,5.32.35-1.94a17.77,17.77,0,0,0,.36-2.8c0-1.41-.61-1.69-2.63-1.69h-.65c-2.9,0-3.26.63-3.74,3.41l-.52,3Z"/><path class="cls-1" d="M47.74,71.78a16.67,16.67,0,0,1,.33-2.7l.58-3.3c.71-4.06,1.69-5,5.9-5h4.67l-1.06,2.55H54.38c-1.84,0-2.22.51-2.58,2.4l-.6,3.35a13.76,13.76,0,0,0-.3,2.17c0,1.09.55,1.29,2.22,1.29h4.41l-1.08,2.55H52.28c-3.2,0-4.54-.91-4.54-3.31"/><path class="cls-1" d="M64.52,69.77a10.84,10.84,0,0,0-.23,1.74c0,1,.63,1,2.27,1h1.72l-1.09,2.55H65.35c-2.82,0-4.24-.76-4.24-3a14.1,14.1,0,0,1,.28-2.34l1.14-6.44H60.66l.43-2.54H63l.76-4.24h3.13l-.76,4.24h4l-.45,2.54h-4Z"/><path class="cls-1" d="M73.07,60.78H76.2L73.7,75.09H70.57ZM74,55.21h3.22l-.58,3.23H73.42Z"/><path class="cls-1" d="M77.76,72a17.92,17.92,0,0,1,.33-2.7l.66-3.71c.7-4,1.69-4.94,5.9-4.94h1.74c3.21,0,4.54.88,4.54,3.3a16.67,16.67,0,0,1-.33,2.7L90,70.32c-.71,4-1.69,4.94-5.9,4.94H82.31c-3.21,0-4.55-.88-4.55-3.3m6.49.76c1.91,0,2.24-.58,2.57-2.43l.66-3.7a13.76,13.76,0,0,0,.3-2.17c0-1.09-.56-1.29-2.2-1.29H84.45c-1.92,0-2.25.58-2.57,2.42l-.66,3.71a13.76,13.76,0,0,0-.3,2.17c0,1.09.53,1.29,2.19,1.29Z"/><path class="cls-1" d="M106.22,63.36a21.17,21.17,0,0,1-.4,3.08l-1.52,8.65h-3.13l1.54-8.65a12.86,12.86,0,0,0,.26-2c0-.88-.38-1.06-1.57-1.06H97.72l-2,11.71H92.55L95,60.79H102c3.23,0,4.24.75,4.24,2.57"/><path class="cls-1" d="M131.17,59.32a21.24,21.24,0,0,1-.43,3.51l-2.12,12.23h-3.38l1.94-11.15a28,28,0,0,0,.51-3.66c0-1.31-.61-1.48-2.73-1.48h-4l-2.87,16.32H114.7L118.05,56h7.85c3.93,0,5.27.73,5.27,3.33"/><path class="cls-1" d="M132.48,72a16.67,16.67,0,0,1,.33-2.7l.66-3.71c.7-4,1.69-4.94,5.9-4.94h1.74c3.2,0,4.54.88,4.54,3.3a16.67,16.67,0,0,1-.33,2.7l-.65,3.71c-.71,4-1.69,4.94-5.91,4.94H137c-3.2,0-4.54-.88-4.54-3.3m6.49.76c1.91,0,2.24-.58,2.57-2.43l.66-3.7a13.76,13.76,0,0,0,.3-2.17c0-1.09-.56-1.29-2.2-1.29h-1.13c-1.92,0-2.25.58-2.57,2.42l-.66,3.71a13.76,13.76,0,0,0-.3,2.17c0,1.09.53,1.29,2.19,1.29Z"/><polygon class="cls-1" points="167.65 60.78 161.27 75.09 157.71 75.09 156.9 65.38 152.03 75.09 148.5 75.09 148.1 60.78 151.2 60.78 151.28 71.46 156.4 60.78 159.5 60.78 160.26 71.46 164.7 60.78 167.65 60.78"/><polygon class="cls-1" points="0 22.82 10.54 24.74 10.54 75.17 18.32 75.17 18.32 0 0 22.82"/></svg>