<svg id="图层_1" data-name="图层 1" xmlns="http://www.w3.org/2000/svg" viewBox="0 0 155.89 132.68"><defs><style>.cls-1{fill:#00a9cf;}.cls-2{fill:#fff;}</style></defs><title>bee</title><path class="cls-1" d="M40.34,111a43.43,43.43,0,0,0,75.2,0Z"/><path class="cls-1" d="M34.49,89.08a43.8,43.8,0,0,0,1.37,11H120a43.64,43.64,0,0,0,0-21.7H35.86a43.88,43.88,0,0,0-1.37,10.7"/><path class="cls-1" d="M56.75,0h-.14a3.51,3.51,0,0,0,.26,7h0c2.75-.1,8.54,1.91,8.64,4.66l3.55-.13A12,12,0,0,0,56.75,0"/><path class="cls-1" d="M99.13,0h.15A3.51,3.51,0,0,1,99,7h0c-2.74-.1-8.54,1.91-8.64,4.66l-3.55-.13A12,12,0,0,1,99.13,0"/><path class="cls-1" d="M109.9,40.83A32,32,0,1,1,78.05,8.76,32,32,0,0,1,109.9,40.83"/><path class="cls-2" d="M66.52,55.35a11.27,11.27,0,0,0-9.79-12.57,11.15,11.15,0,0,0-4.66.42h0L16.77,53.68a25.27,25.27,0,0,0-2.9,1.24,26,26,0,0,0-4.16,2.64,25.22,25.22,0,0,0,31,39.78,25.15,25.15,0,0,0,5.48-5.9L65,59.78h0a11.26,11.26,0,0,0,1.54-4.42"/><path class="cls-2" d="M89.36,55.35A11.23,11.23,0,0,1,103.82,43.2h0l35.29,10.49a25.22,25.22,0,1,1-24,43.66A25.56,25.56,0,0,1,111.59,94a24.07,24.07,0,0,1-1.91-2.51L90.89,59.78h0a11.11,11.11,0,0,1-1.55-4.42"/></svg>