<svg id="图层_1" data-name="图层 1" xmlns="http://www.w3.org/2000/svg" viewBox="0 0 133.96 101.88"><defs><style>.cls-1{fill:#fff;}.cls-2{fill:#0050de;}</style></defs><title>bird</title><path class="cls-1" d="M112.38,0A38.39,38.39,0,1,1,58,54.15Z"/><path class="cls-2" d="M19.61,47.73a40.81,40.81,0,0,0-6.39-.5,41.53,41.53,0,0,0-10.7,1.4l-1,.26a1.5,1.5,0,0,1-.84-2.74l.53-.32A41.12,41.12,0,0,1,19.86,39.3"/><path class="cls-1" d="M19.36,44.23l114.6.21a57.44,57.44,0,0,1-57.44,57.44c-31.73,0-57.16-26-57.16-57.73"/><path class="cls-1" d="M68,44.36A24.3,24.3,0,1,1,43.72,19.88,24.35,24.35,0,0,1,68,44.36"/></svg>