<svg id="图层_1" data-name="图层 1" xmlns="http://www.w3.org/2000/svg" viewBox="0 0 283.47 283.47"><defs><style>.cls-1{fill:#ff5a00;}.cls-2{fill:#fff;}</style></defs><title>culture-day</title><path class="cls-1" d="M283.47,141.73A141.74,141.74,0,1,1,141.73,0,141.74,141.74,0,0,1,283.47,141.73"/><path class="cls-2" d="M128.32,79a79.67,79.67,0,0,1-1.7,14.1l-2.35,13.19c-1.82,10.57-3.91,12-14.36,15l-21.28,6c-10.58,3-11,3.65-12.28,11.1l-2.48,14H118.4l-6,14.49H55.46l5.1-29c3.13-17.62,5-18.28,24.93-24l14.63-4.18c7.31-2.09,8.22-3.13,9.14-8.1l1.56-8.87a53.94,53.94,0,0,0,.92-6.4c0-3.4-2.09-3.92-8.88-3.92h-30L70.22,68h39c14.88,0,19.06,2.87,19.06,11"/><path class="cls-2" d="M206,79a79.67,79.67,0,0,1-1.7,14.1L202,106.29c-1.83,10.57-3.92,12-14.36,15l-21.28,6c-10.58,3-11,3.65-12.28,11.1l-2.48,14h44.53l-6,14.49H133.15l5.09-29c3.14-17.62,5-18.28,24.94-24l14.63-4.18c7.31-2.09,8.22-3.13,9.14-8.1l1.56-8.87a53.94,53.94,0,0,0,.92-6.4c0-3.4-2.09-3.92-8.88-3.92h-30L147.91,68h39C201.83,68,206,70.9,206,79"/><path class="cls-2" d="M217.91,154.94a20.72,20.72,0,0,1-.41,3.14L216,166.92h-3.19l1.57-8.84a13.11,13.11,0,0,0,.26-2c0-.9-.39-1.08-1.6-1.08h-3.76l-2.09,11.95H204l2.55-14.6h7.08c3.3,0,4.33.77,4.33,2.62"/><path class="cls-2" d="M234.86,146.37l-3.64,20.55h-6.46c-3.27,0-4.64-.93-4.64-3.37a17.54,17.54,0,0,1,.34-2.76l.59-3.43c.69-4.09,1.75-5,6-5h3.53l1-5.95Zm-6.37,17.95,1.65-9.4H226.9c-1.88,0-2.3.51-2.63,2.44l-.62,3.48a13,13,0,0,0-.28,2.17c0,1.1.59,1.31,2.26,1.31Z"/><path class="cls-2" d="M59.33,184.77l-3.19,17.88H53.91l1.29-6.87H53.71c-.51,2.53-1.1,4.87-1.67,6.87H49.85c.65-2.15,1.25-4.47,1.75-7l2.17-12.15h4.17c1.12,0,1.56.19,1.39,1.27m-3.14,5.7H54.65L54,194h1.49Zm.48-5.11h-1.1L55,188.7h1.54l.54-2.92c.07-.35-.06-.42-.39-.42M65.6,200H58l-.31-1.71H66Zm5.86-7.42-.57,1.93a8.26,8.26,0,0,1-2.77-1.16l-.52,2.33h1.07c.77,0,1.3.13,1.14,1.05-.26,1.67-.65,3.93-1,5.9H62.84l-.4-1.78H66.7l.61-3c.07-.31-.06-.44-.37-.44H59.46l.7-3.6a11,11,0,0,1-2.13.7l.46-2.19a8.94,8.94,0,0,0,3.69-1.93H58.86l.36-1.71h4.12a6.62,6.62,0,0,0,.46-1H59.39l.35-1.76h1.52l-.53-2.63H63c.16.88.33,1.69.53,2.63h.79a18.08,18.08,0,0,0,.39-3h2.33a19.62,19.62,0,0,1-.39,3h.85a19.4,19.4,0,0,0,1-2.63h2.31a25,25,0,0,1-1.12,2.63h1.62L71,187.69h-4.8c-.11.35-.26.68-.4,1h5.88l-.41,1.71H67.84c.57,1,2.46,1.91,3.62,2.19m-6.12,3.1.44-2H61.3l1,.7-.24,1.32Zm-.6-5.29a8.28,8.28,0,0,1-1.55,1.6h3.4a6.62,6.62,0,0,1-1-1.6Z"/><path class="cls-2" d="M77.8,198.22c.9-.66,1.93-1.49,2.9-2.26l-.53,2.85a54.88,54.88,0,0,1-5.68,3.93l2.21-12H74.44l.33-1.93h4.7Zm0-10.53c-.26-1.54-.55-3.08-.81-4.61h2.28l.92,4.61Zm15.38-2.92c-.9,5-1.89,10.68-2.79,15.66H93.1l-.79,2H87.57c.68-3.8,1.25-7.14,1.75-10H85.81l-1.75,10H81.64l1.76-10h-3l.37-1.87h3l.83-4.69,2.13,1.58-.55,3.11h3.51c.31-1.77.59-3.38.86-4.74.11-.57-.14-.63-.64-.63h-8.1l-.44-1.93H91.8c1.34,0,1.56.39,1.36,1.49"/><path class="cls-2" d="M107.84,186.08a13.87,13.87,0,0,1-.28,2.37l-.4,2.22c-.3,1.78-.66,2-2.41,2.52l-3.58,1c-1.78.51-1.84.62-2.06,1.87l-.42,2.35h7.49l-1,2.43H95.6l.85-4.87c.53-3,.84-3.07,4.2-4l2.45-.7c1.23-.35,1.39-.53,1.54-1.36l.26-1.49a9.25,9.25,0,0,0,.16-1.08c0-.57-.36-.66-1.5-.66h-5l-.44-2.41h6.56c2.5,0,3.2.48,3.2,1.84"/><path class="cls-2" d="M121.34,186.08a13,13,0,0,1-.29,2.37l-.39,2.22c-.31,1.78-.66,2-2.42,2.52l-3.57,1c-1.78.51-1.85.62-2.06,1.87l-.42,2.35h7.48l-1,2.43h-9.57L110,196c.53-3,.83-3.07,4.19-4l2.46-.7c1.23-.35,1.38-.53,1.53-1.36l.27-1.49a8.57,8.57,0,0,0,.15-1.08c0-.57-.35-.66-1.49-.66h-5l-.44-2.41h6.56c2.51,0,3.21.48,3.21,1.84"/><path class="cls-2" d="M143.19,184.55l-2.52,18.1h-4.85l-.57-2h3.27l2.13-14.92c0-.49-.13-.53-.57-.53H128.16a74.62,74.62,0,0,1-3.38,17.42H122c2.68-6.84,3.34-13,3.93-19.37H142c1.05,0,1.3.39,1.16,1.27m-15.42,15.16.9-5.7h7.68c1.14,0,1.38.24,1.23,1.2l-.68,4.5Zm4.65-8.86.26-1.69h-3.33l.24-1.78h3.33l.25-1.58h2.28l-.22,1.58h3.44l-.26,1.78H135l-.25,1.69h4.19l-.3,1.77h-10.4l.28-1.77Zm-2.11,7.08h4.59l.28-1.91c0-.15,0-.24-.17-.24h-4.37Z"/><path class="cls-2" d="M158.67,186.79l-.42,3.09h5.55l-.31,1.87H158l-.54,3.88h7.63l-.3,2h-7.6l-.7,5.07h-2.61l.75-5.07h-9.44l.31-2h3.16l.94-5.75h6.14l.44-3.09h-3.64a18.45,18.45,0,0,1-6.34,4.63l.53-2.83a12.1,12.1,0,0,0,5.5-5.67h2.59a10.4,10.4,0,0,1-.94,2h12.07l-.31,1.87Zm-3.23,5h-3.66l-.6,3.88h3.71Z"/><path class="cls-2" d="M185.3,188a37.5,37.5,0,0,1-5.66,7.79,70.08,70.08,0,0,0,6.23,6.84h-3.64c-1.49-1.69-2.92-3.33-4.3-5.13a63.11,63.11,0,0,1-6.19,5.13h-4.25a68.91,68.91,0,0,0,9-7.09,43.2,43.2,0,0,1-4.28-7.54h-2.77l.29-1.94h8.09c-.28-1-.59-2.26-.74-3.18h2.61a30.62,30.62,0,0,0,.77,3.18h7.85l-.24,1.94Zm-2.91,0H175a31.37,31.37,0,0,0,3.2,5.81,25.89,25.89,0,0,0,4.2-5.81"/><path class="cls-2" d="M196,188.15l-2,14.5h-2.48L193.16,191a19.07,19.07,0,0,1-2.61,1.9l.53-3.22a14.6,14.6,0,0,0,5.18-6.41h2.58a16.24,16.24,0,0,1-2.89,4.92m5.88,12.39h7l-.83,2.11h-9l.86-6.1a39.77,39.77,0,0,1-4.3,1.89l.52-2.7a21,21,0,0,0,4.15-1.91l1.47-10.6h2.46L203,191.86a19.56,19.56,0,0,0,4.66-5.82h2.72A23.37,23.37,0,0,1,202.6,195Z"/><path class="cls-2" d="M231.76,185l-2.19,17.68h-16.2l2.83-19.09h14.11c1.38,0,1.58.42,1.45,1.41m-4.61,15.57.86-6.8-10.67,0-1,6.78Zm-8.6-14.87-.9,6h10.62l.68-5.35c.07-.55-.13-.66-.64-.66Z"/></svg>