<svg id="图层_1" data-name="图层 1" xmlns="http://www.w3.org/2000/svg" viewBox="0 0 277.25 253.55"><defs><style>.cls-1{fill:#0050de;}.cls-2{fill:#fff;}</style></defs><title>dolphin</title><path class="cls-1" d="M234,44.27a32.43,32.43,0,0,1,31.12-23.36h.84l2.89.24a2.24,2.24,0,0,0,.86-4.32l-.86-.57a93.75,93.75,0,0,0-82.68-4.09A145.55,145.55,0,0,0,20.85,46.87l-2,2.17A71.67,71.67,0,0,0,1.56,88a76.73,76.73,0,0,0,1.71,22.64C6.8,127.5,6,131.62,4.79,137.06c-2.27,10-8,13.58-2.37,19.92l1.37.85A6.78,6.78,0,0,0,7.29,159a9.22,9.22,0,0,0,7.81-4.3l1.67-2.11A125.24,125.24,0,0,1,51.17,123a128.17,128.17,0,0,1,70.21-20.83c33.41,0,63.86,11.34,86.75,32.2A115.62,115.62,0,0,1,220,146.77c10.55,12.55,18.75,28.52,23.92,44.47v.68l.17,1c.08,1.78.12,3.56.12,5.36a124.49,124.49,0,0,1-12.84,55.24h0A145.17,145.17,0,0,0,234,44.27"/><path class="cls-2" d="M220.25,148.15a128.67,128.67,0,0,1,24,43.4A123.4,123.4,0,0,0,4.38,158.14a5.58,5.58,0,0,0,2.91.87,9.23,9.23,0,0,0,7.81-4.29l1.67-2.12A125.24,125.24,0,0,1,51.17,123a128.17,128.17,0,0,1,70.21-20.83h.21a128.34,128.34,0,0,1,86.75,33.59,116.46,116.46,0,0,1,11.91,12.42"/><path class="cls-2" d="M80.58,95.3a93.69,93.69,0,0,0,67.8,46.79,2.14,2.14,0,0,0,1.92-3.53,93.25,93.25,0,0,1-24-62.52"/><path class="cls-1" d="M173.59,27.68a54.63,54.63,0,0,0,7,72.21l.31.3a2.37,2.37,0,0,1,.88,1.85,2.4,2.4,0,0,1-2.4,2.39l-.3,0a23.92,23.92,0,0,1-2.54,0c-42.45-3.14-76.18-32.13-79.69-73.06"/></svg>