<svg id="图层_1" data-name="图层 1" xmlns="http://www.w3.org/2000/svg" viewBox="0 0 209.26 321.28"><defs><style>.cls-1{fill:#0050de;}.cls-2{fill:#fff;}</style></defs><title>giraffe</title><polygon class="cls-1" points="209.26 321.28 139.89 131.05 104.96 131.05 104.96 321.28 209.26 321.28"/><path class="cls-1" d="M159.13,77.12A100.94,100.94,0,0,1,129,5V4.5a4.85,4.85,0,0,0-9.69.35l0,.56,0,1A80.71,80.71,0,0,1,115.79,27l-.4,1.06a11.77,11.77,0,0,1-22.11,0L92.88,27A80.71,80.71,0,0,1,89.45,6.44l0-1,0-.56a4.85,4.85,0,0,0-9.69-.35V5A101,101,0,0,1,49.53,77.12L60.42,96.48c-.17,1.78-.26,3.58-.26,5.4a55.54,55.54,0,0,0,23.46,45.37l2.17,1.39a36,36,0,0,0,18.47,5.06h.15a36,36,0,0,0,18.47-5.06l2.16-1.39a55.52,55.52,0,0,0,23.47-45.37c0-1.82-.09-3.62-.26-5.4Z"/><path class="cls-1" d="M128.46,45.13a52.46,52.46,0,0,1,80.21-19.51,52.68,52.68,0,0,1-47.74,30.6,52.49,52.49,0,0,1-32.47-11.09"/><path class="cls-2" d="M139.8,52.5a46.1,46.1,0,0,0-20.6,38.44l0,59.6.14-.06a35.65,35.65,0,0,0,3.52-1.84l2.16-1.39a55.52,55.52,0,0,0,23.47-45.37c0-1.82-.09-3.62-.26-5.4l10.88-19.36a101.29,101.29,0,0,1-18.56-25l-.77.38"/><path class="cls-1" d="M80.21,45.13A52.46,52.46,0,0,0,0,25.62a52.68,52.68,0,0,0,47.74,30.6A52.49,52.49,0,0,0,80.21,45.13"/><path class="cls-2" d="M68.86,52.5a46.13,46.13,0,0,1,20.6,38.44l0,59.6-.13-.06a35.81,35.81,0,0,1-3.53-1.84l-2.16-1.39a55.51,55.51,0,0,1-23.46-45.37c0-1.82.08-3.62.25-5.4L49.52,77.12a101.58,101.58,0,0,0,18.57-25l.77.38"/><path d="M112.69,186a18.87,18.87,0,0,1-2.34,1.83,11.66,11.66,0,0,1-14.07-1.64L78.61,169.37A13.5,13.5,0,0,1,77,154l23-38.85a5,5,0,0,1,8.48,0L131.63,154a13.69,13.69,0,0,1,1.73,6.65,14,14,0,0,1-2.76,7.87,33,33,0,0,1-2.33,2.47c-4.38,4-14.18,13.78-15.58,15"/></svg>