<svg id="图层_1" data-name="图层 1" xmlns="http://www.w3.org/2000/svg" viewBox="0 0 254.54 234.1"><defs><style>.cls-1{fill:#fff;}.cls-2{fill:none;}</style></defs><title>sense-of-worth</title><polygon class="cls-1" points="10.73 219.23 10.16 223.34 14.71 223.34 14.48 224.95 9.92 224.95 9.16 230.4 14.95 230.4 14.71 232.01 0.1 232.01 0.34 230.4 2.61 230.4 3.87 221.54 5.67 222.53 4.56 230.4 7.16 230.4 8.76 219.23 2.25 219.23 2.49 217.62 16.26 217.62 16.02 219.23 10.73 219.23"/><path class="cls-1" d="M36.2,219.92,36,221.05h3.7c.79,0,1,.22.86,1l-1.2,8.66H41l-.18,1.36H26.45l.2-1.36h1.78l1.33-9.7h4.36l.2-1.13H28.37l.18-1.36h6l.25-1.41h1.85l-.23,1.41h6.07l-.19,1.36Zm1.28,10.83.17-1.19H30.49l-.17,1.19Zm.51-3.6H30.8l-.15,1.16h7.17Zm.18-1.24.15-1.16h-7.2L31,225.91Zm.39-3.55h-7.1l-.17,1.14h7.22l.13-1c0-.1,0-.15-.08-.15"/><rect class="cls-1" x="55.93" y="216.44" width="1.98" height="17.66"/><path class="cls-1" d="M81.64,230.7h4.25l-.59,1.57H80.91c-2.87,0-5.43-.31-7.48-1.57-.34.57-.66,1.11-1,1.57H70.27a24.93,24.93,0,0,0,3-5.27l.45-3c0-.21,0-.29-.24-.29H71.73l.24-1.41h2.84c.65,0,.91.18.82.85l-.57,4.33c-.25.57-.54,1.17-.86,1.76,1.92,1.23,4.61,1.43,7.44,1.43m-7.72-10c-.37-1-.84-2.2-1.3-3.56h1.85c.42,1.11,1,2.35,1.55,3.56ZM84.24,224h2.39l-.25,1.48H84L83.45,230H81.6l.61-4.45H80A20.49,20.49,0,0,1,77.9,230H75.7a14.4,14.4,0,0,0,2.44-4.45H75.92l.23-1.48h2.37c.21-.86.37-1.84.53-2.83H77.16l.22-1.48h1.88c.12-.92.22-1.8.31-2.57h1.81l-.3,2.57H83l.35-2.57h1.82l-.34,2.57h1.92l-.25,1.48H84.63Zm-1.83,0,.39-2.83H80.86c-.13,1-.3,1.92-.49,2.83Z"/><path class="cls-1" d="M113.11,219.38a44,44,0,0,1-3.33,7c.68,1.88,1.5,3.87,2.44,5.88H110c-.47-1.27-.92-2.58-1.38-3.91-.82,1.29-1.7,2.57-2.6,3.91h-4.32l.42-3.12c-1.77.4-3.6.8-5,1.09l.2-1.6,1-.2,1.36-9.58h-1l.2-1.42h7.32l-.19,1.42h-.75l-1.11,8.27,1.31-.32-.22,1.6-1.31.32-.46,3.44a39.43,39.43,0,0,0,4.44-5.95,58.34,58.34,0,0,1-1.59-6h1.83a28.79,28.79,0,0,0,.92,4,26,26,0,0,0,2-4.49c0-.14,0-.19-.13-.19h-4.56l.24-1.51h5.76c1,0,1.06.45.79,1.39m-10.82,8.18.25-1.8h-2.12L100.1,228l2.19-.48m-1.67-3.2h2.1l.29-2.07h-2.1Zm.77-5.51-.28,2.05h2.08l.27-2.05Z"/><rect class="cls-1" x="126.62" y="216.44" width="1.98" height="17.66"/><path class="cls-1" d="M145.78,223.39l-1.26,8.87h-1.81l1.29-8.87h-1.55l.22-1.55h1.55l.69-4.71h1.77l-.68,4.71h1.58l-.23,1.55Zm1.67,5h-1.82a18.84,18.84,0,0,0,1.72-4.62H149a26.91,26.91,0,0,1-1.53,4.62m8-6.94c-.37,3.4-.91,7.36-1.52,10.84h-3.41l-.45-1.44h2.18c.51-2.64,1.08-6.19,1.35-8.85,0-.15,0-.21-.19-.21h-1.61a23.15,23.15,0,0,1-3.9,10.5h-2.27a20,20,0,0,0,4.39-10.5h-1.9l-.41-1.47h2.51c.11-1,.25-2.08.35-3.16h1.8c-.12,1.08-.25,2.19-.37,3.16h2.5c.76,0,1.05.24,1,1.13m1.53,6.94h-1.57c0-1,0-2.77,0-4.62h1.48c0,1.61.07,3.33.14,4.62"/><path class="cls-1" d="M172.42,221.27l-1.53,11H169l1.27-8.73a12.27,12.27,0,0,1-1.71,1.28l.4-2.52a10.16,10.16,0,0,0,3.77-5.16h2a12.36,12.36,0,0,1-2.24,4.12m6.81-.41-.32,2.32h4.27l-.22,1.48h-4.25l-.32,2.26h4.32l-.24,1.48h-4.3l-.54,3.9h-1.85l1.65-11.44h-.6A12.52,12.52,0,0,1,173,224.4l.32-2.36a9.6,9.6,0,0,0,3.41-4.89h1.92a11.23,11.23,0,0,1-.92,2.2h6.49l-.22,1.51Z"/><rect class="cls-1" x="197.31" y="216.44" width="1.98" height="17.66"/><path class="cls-1" d="M221.06,223.29c0,.13,0,.26,0,.45-.19,1.58-.42,3.25-.66,4.81h-3.11l-.44-1.45h2c.14-.84.3-2,.41-2.77,0-.24,0-.3-.22-.3h-2.76l-.86,6.76H221l-.6,1.48h-7.05l1.18-9.07h-1.38c1.5-2.3,2.5-4,3.45-5.68h3.48a.65.65,0,0,1,.74.55c.4,1.25,1.24,3.58,1.88,5.22Zm-.5-.61c-.37-1.18-.84-2.71-1.09-3.63-.05-.15-.09-.17-.19-.17h-1.49c-.56,1-1.37,2.39-2.22,3.73h4.35a2.36,2.36,0,0,1,.64.07m3.36,6h-1.76l1.43-10.25h1.7Zm4.66-11.55-2.12,15.14H222.7l-.42-1.55h2.62l1.93-13.59Z"/><path class="cls-1" d="M248.71,230.7h5l-.59,1.58h-4.51c-2.84,0-5.53-.43-7.45-1.73-.3.62-.62,1.21-.9,1.7H238a27.8,27.8,0,0,0,2.64-5,23.61,23.61,0,0,0,.59-3.36c0-.2,0-.27-.22-.27h-1.65l.24-1.41h2.72c.71,0,.89.25.83.86-.09,1.16-.44,3.39-.68,4.57-.18.47-.4,1-.64,1.46,1.47,1.05,3.84,1.58,6.9,1.6m-7.11-10c-.34-1-.78-2.2-1.28-3.58h1.88c.44,1.13,1,2.29,1.56,3.58Zm12.94,1.67-.2,1.34H243.6l.2-1.34h4.64l.27-1.83h-2.2a7.77,7.77,0,0,1-2.51,1.58l.23-1.87a4.38,4.38,0,0,0,2.21-2.46h1.86a6.41,6.41,0,0,1-.69,1.42h1.3l.32-2.09h1.82l-.31,2.09h3.57l-.19,1.33h-3.56l-.27,1.83Zm-1.93,7.09H244l.69-4.79h7.55c.84,0,1,.2.87,1ZM251.05,226h-4.71l-.29,2.17h4.88l.27-1.91c0-.16,0-.26-.15-.26"/><polygon class="cls-1" points="0.14 27.13 4.75 1.07 9.36 1.07 4.78 27.13 0.14 27.13"/><path class="cls-1" d="M23.06,7.61a13.69,13.69,0,0,1,3.27.31A3.45,3.45,0,0,1,28.21,9a3.23,3.23,0,0,1,.64,2.15c0,.16,0,.48-.06,1s-.2,1.55-.49,3.25L26.23,27.13H22l2.1-11.81a18.27,18.27,0,0,0,.35-2.72A1.27,1.27,0,0,0,24,11.45a3.3,3.3,0,0,0-1.69-.3h-5l-2.79,16H10.19L13.6,7.61Z"/><path class="cls-1" d="M39.24,11.08l-1.55,8.78a16.4,16.4,0,0,0-.31,2.38,1.2,1.2,0,0,0,.38,1,2,2,0,0,0,1.09.35c.47,0,1,0,1.63,0h2.34l-1.48,3.48H38.83a11.58,11.58,0,0,1-2.94-.31A4.42,4.42,0,0,1,34.15,26a2.89,2.89,0,0,1-.86-1.31,5.28,5.28,0,0,1-.24-1.59,18.69,18.69,0,0,1,.37-3.2L35,11.08H32.43L33,7.61h2.58l1-5.79h4.27l-1,5.79h5.47l-.62,3.47Z"/><path class="cls-1" d="M58,7.37a9.75,9.75,0,0,1,3.27.43A3.33,3.33,0,0,1,63,9.07a3.84,3.84,0,0,1,.55,2.15,8.34,8.34,0,0,1-.14,1.52L63,15.46a5.69,5.69,0,0,1-1.41,3.21,4.54,4.54,0,0,1-3.13.92H50.84l-.17,1.06a8.68,8.68,0,0,0-.17,1.52,1.22,1.22,0,0,0,.55,1.17,4.61,4.61,0,0,0,2.06.31H60l-1.41,3.48H52.29A18.17,18.17,0,0,1,49.91,27,6.43,6.43,0,0,1,48,26.42a3,3,0,0,1-1.28-1.15,4,4,0,0,1-.46-2.07,15.3,15.3,0,0,1,.24-2.41l1.34-7.71a10.1,10.1,0,0,1,1-3.24A4.37,4.37,0,0,1,51,8a12.73,12.73,0,0,1,4.69-.62Zm1.13,5.37a6.35,6.35,0,0,0,.11-.9.82.82,0,0,0-.45-.81,4.15,4.15,0,0,0-1.65-.22H54.73a4.17,4.17,0,0,0-1.49.21,1.42,1.42,0,0,0-.81.77A4.88,4.88,0,0,0,52,13.08l-.55,3.17h5.85a1.61,1.61,0,0,0,1-.29,1.53,1.53,0,0,0,.44-1Z"/><path class="cls-1" d="M77.14,7.37a8.36,8.36,0,0,1,4.75,1,4,4,0,0,1,1.45,3.48,24.16,24.16,0,0,1-.45,3.68L80.76,27.64A9.68,9.68,0,0,1,79.62,31a4.39,4.39,0,0,1-2,1.74,9.74,9.74,0,0,1-3.65.53H66.5l-.62-3.51H73a9.55,9.55,0,0,0,1.88-.12,1.93,1.93,0,0,0,.79-.36,2.21,2.21,0,0,0,.55-.77,8,8,0,0,0,.5-2l.24-1.35H72a8.34,8.34,0,0,1-4.75-1,4,4,0,0,1-1.45-3.48A24.16,24.16,0,0,1,66.23,17l.51-2.86a13.4,13.4,0,0,1,1.43-4.49,4.32,4.32,0,0,1,2.34-1.77,14.66,14.66,0,0,1,4.26-.48ZM73.08,21.69h4.47l1.07-6.17a19.85,19.85,0,0,0,.41-3,1.46,1.46,0,0,0-.63-1.41A5.54,5.54,0,0,0,76,10.81H74.49a6.14,6.14,0,0,0-1.65.19,1.88,1.88,0,0,0-1.1.77A6.43,6.43,0,0,0,71,14.11L70.5,17a22.59,22.59,0,0,0-.42,3,1.47,1.47,0,0,0,.64,1.41,5.47,5.47,0,0,0,2.36.35"/><path class="cls-1" d="M85.4,27.13l2.34-13.22a14.32,14.32,0,0,1,1.05-3.76,4.13,4.13,0,0,1,1.5-1.7,5.76,5.76,0,0,1,2.19-.69,24.62,24.62,0,0,1,2.84-.15h4.75l-1.48,3.54H95.45a4,4,0,0,0-2.37.47,2.2,2.2,0,0,0-.74,1.12A12.22,12.22,0,0,0,92,14.15l-2.31,13Z"/><path class="cls-1" d="M100,27.13l3.41-19.52h4.27L104.3,27.13Zm3.89-22.72L104.71,0h4.41l-.79,4.41Z"/><path class="cls-1" d="M117.38,11.08l-1.55,8.78a16.4,16.4,0,0,0-.31,2.38,1.2,1.2,0,0,0,.38,1,2,2,0,0,0,1.08.35c.48,0,1,0,1.64,0H121l-1.48,3.48H117a11.58,11.58,0,0,1-2.94-.31,4.42,4.42,0,0,1-1.74-.86,2.89,2.89,0,0,1-.86-1.31,5,5,0,0,1-.25-1.59,18.9,18.9,0,0,1,.38-3.2l1.55-8.78h-2.54l.58-3.47h2.58l1-5.79H119l-1,5.79h5.47l-.61,3.47Z"/><path class="cls-1" d="M138.93,7.61h4.23l-3.51,20A9.42,9.42,0,0,1,138.52,31a4.44,4.44,0,0,1-2,1.74,9.74,9.74,0,0,1-3.65.53h-7.37l-.62-3.51h7a6.06,6.06,0,0,0,2.38-.29,1.89,1.89,0,0,0,.79-.9,9.86,9.86,0,0,0,.55-2l.24-1.35h-4.89a8.38,8.38,0,0,1-4.75-1,4,4,0,0,1-1.44-3.48A24.16,24.16,0,0,1,125.2,17l1.65-9.36h4.27L129.46,17a20.79,20.79,0,0,0-.41,3,1.45,1.45,0,0,0,.64,1.41,5.47,5.47,0,0,0,2.36.35h4.4Z"/><path class="cls-1" d="M16.07,42.38a19.11,19.11,0,0,1,2,.1,6.14,6.14,0,0,1,1.7.41,2.61,2.61,0,0,1,1.17,1,3.16,3.16,0,0,1,.45,1.84,27.8,27.8,0,0,1-.48,3.92l-.59,3.27a15.73,15.73,0,0,1-.89,3.31A5.61,5.61,0,0,1,18,58.24a5.11,5.11,0,0,1-2.17,1.09,13.28,13.28,0,0,1-3.2.33H6.16L4.61,68.43H0L4.58,42.38Zm.25,7.22a17.39,17.39,0,0,0,.31-2.27,1,1,0,0,0-.56-1,5.39,5.39,0,0,0-2-.26H8.54L6.81,56h5.31a4.54,4.54,0,0,0,2-.36,2.53,2.53,0,0,0,1.14-1.24A12.45,12.45,0,0,0,16,51.43Z"/><path class="cls-1" d="M21.48,68.43l2.34-13.22a14.11,14.11,0,0,1,1.05-3.75,4,4,0,0,1,1.5-1.7,5.34,5.34,0,0,1,2.18-.69,24.75,24.75,0,0,1,2.84-.15h4.75l-1.48,3.54H31.53a4,4,0,0,0-2.37.47A2.21,2.21,0,0,0,28.42,54a12.92,12.92,0,0,0-.33,1.42l-2.31,13Z"/><path class="cls-1" d="M42.61,68.68a8.37,8.37,0,0,1-4.75-1,4,4,0,0,1-1.44-3.47,24.11,24.11,0,0,1,.45-3.69l.89-5.06A19,19,0,0,1,38.64,52,4.84,4.84,0,0,1,40,50a5,5,0,0,1,2.24-1,17.4,17.4,0,0,1,3.58-.29h2.37a8.36,8.36,0,0,1,4.75,1,4,4,0,0,1,1.45,3.47,24.11,24.11,0,0,1-.45,3.69L53,61.93a19.06,19.06,0,0,1-.87,3.42,5,5,0,0,1-1.36,2,5,5,0,0,1-2.24,1,17.37,17.37,0,0,1-3.58.3Zm1.11-3.48h1.55A6.14,6.14,0,0,0,46.92,65,2.06,2.06,0,0,0,48,64.23a6.39,6.39,0,0,0,.74-2.34l.89-5.06a19.85,19.85,0,0,0,.41-3,1.46,1.46,0,0,0-.63-1.41,5.54,5.54,0,0,0-2.36-.34H45.54a6.14,6.14,0,0,0-1.65.19,2,2,0,0,0-1.12.77A6.2,6.2,0,0,0,42,55.42l-.9,5.06a20.79,20.79,0,0,0-.41,3,1.45,1.45,0,0,0,.64,1.41,5.47,5.47,0,0,0,2.36.35"/><path class="cls-1" d="M69,48.92a7.74,7.74,0,0,1,4.15.84,3,3,0,0,1,1.25,2.7,24.59,24.59,0,0,1-.45,3.37l-2.2,12.6H61.37a7.42,7.42,0,0,1-2.47-.34A2.59,2.59,0,0,1,57.47,67,3.88,3.88,0,0,1,57,65a19.58,19.58,0,0,1,.31-2.76L57.52,61a10.75,10.75,0,0,1,.79-2.7,3.35,3.35,0,0,1,1.26-1.45,4.73,4.73,0,0,1,1.89-.6,27,27,0,0,1,3.08-.14h5.17l.1-.62a11.24,11.24,0,0,0,.24-1.75,1.12,1.12,0,0,0-.55-1.07,4.57,4.57,0,0,0-2-.31H60.58L60,48.92ZM62.58,65h5.58l1-5.51H63.75a1.64,1.64,0,0,0-2,1.72l-.28,1.55a6.66,6.66,0,0,0-.13,1.2,1.22,1.22,0,0,0,.2.74c.14.2.5.3,1.07.3"/><path class="cls-1" d="M83.48,68.43a8.3,8.3,0,0,1-4.76-1.05,4,4,0,0,1-1.44-3.46,24.16,24.16,0,0,1,.45-3.68l.79-4.51a15.94,15.94,0,0,1,1.1-3.94,4.54,4.54,0,0,1,1.6-1.88,5.94,5.94,0,0,1,2.36-.81,23.1,23.1,0,0,1,3-.18h6.37L91.5,52.39H86.33a5.44,5.44,0,0,0-1.82.24,2,2,0,0,0-1,.88,6.67,6.67,0,0,0-.66,2.15L82,60.24a19.84,19.84,0,0,0-.42,3,1.58,1.58,0,0,0,.54,1.36,4.79,4.79,0,0,0,2.49.4h6l-1.48,3.47Z"/><path class="cls-1" d="M101.72,52.39l-1.55,8.78a15.07,15.07,0,0,0-.31,2.38,1.2,1.2,0,0,0,.38,1,2,2,0,0,0,1.08.35c.47,0,1,0,1.64,0h2.34l-1.48,3.47h-2.51a11.27,11.27,0,0,1-3-.31,4.3,4.3,0,0,1-1.74-.86,2.89,2.89,0,0,1-.86-1.3,5.28,5.28,0,0,1-.24-1.59,18.79,18.79,0,0,1,.38-3.2l1.55-8.78H94.9l.59-3.47h2.58l1-5.79h4.27l-1,5.79h5.47l-.62,3.47Z"/><path class="cls-1" d="M108.43,68.43l3.41-19.51h4.27L112.7,68.43Zm3.89-22.72.79-4.4h4.41l-.79,4.4Z"/><polygon class="cls-1" points="132.67 48.92 136.94 48.92 126.4 68.43 121.24 68.43 118.9 48.92 123.17 48.92 124.85 63.82 132.67 48.92"/><path class="cls-1" d="M135.76,68.43l3.41-19.51h4.27L140,68.43Zm3.89-22.72.79-4.4h4.41l-.79,4.4Z"/><path class="cls-1" d="M153.11,52.39l-1.55,8.78a16.4,16.4,0,0,0-.31,2.38,1.2,1.2,0,0,0,.38,1,2,2,0,0,0,1.09.35c.47,0,1,0,1.63,0h2.34l-1.48,3.47H152.7a11.14,11.14,0,0,1-2.94-.31,4.17,4.17,0,0,1-1.74-.86,2.89,2.89,0,0,1-.86-1.3,5.28,5.28,0,0,1-.24-1.59,17.81,17.81,0,0,1,.38-3.2l1.54-8.78H146.3l.58-3.47h2.58l1-5.79h4.27l-1,5.79h5.48l-.62,3.47Z"/><path class="cls-1" d="M174.66,48.92h4.24l-3.51,20a9.68,9.68,0,0,1-1.14,3.34,4.39,4.39,0,0,1-2,1.74,10,10,0,0,1-3.65.53H161.2l-.62-3.51h7a6,6,0,0,0,2.37-.29,1.94,1.94,0,0,0,.79-.9,9.22,9.22,0,0,0,.55-2l.24-1.34h-4.88a8.34,8.34,0,0,1-4.75-1A4,4,0,0,1,160.48,62a24,24,0,0,1,.45-3.68l1.65-9.36h4.27l-1.65,9.36a19.67,19.67,0,0,0-.42,3,1.45,1.45,0,0,0,.64,1.41,5.51,5.51,0,0,0,2.36.34h4.4Z"/><path class="cls-1" d="M7.44,109.74a14.15,14.15,0,0,1-3.83-.44,4,4,0,0,1-2.27-1.59,5.57,5.57,0,0,1-.76-3.1,24.66,24.66,0,0,1,.49-4.23l1.79-10a14.94,14.94,0,0,1,.89-3.29,5.46,5.46,0,0,1,1.4-2A5,5,0,0,1,7.28,84a13,13,0,0,1,3.18-.33h8.61L17.49,87.5H11a4.42,4.42,0,0,0-2,.37,2.47,2.47,0,0,0-1.11,1.22A13.75,13.75,0,0,0,7.16,92L5.92,98.9a33.86,33.86,0,0,0-.69,4.85,2.49,2.49,0,0,0,.29,1.19,1.77,1.77,0,0,0,1.21.76,11.53,11.53,0,0,0,2.6.22h6.4l-1.62,3.82Z"/><path class="cls-1" d="M25.54,110a8.36,8.36,0,0,1-4.75-1,4,4,0,0,1-1.44-3.48,23.8,23.8,0,0,1,.44-3.68l.9-5.06a18.16,18.16,0,0,1,.88-3.42,4.79,4.79,0,0,1,1.35-2,5,5,0,0,1,2.24-1,17.37,17.37,0,0,1,3.58-.3h2.38a8.37,8.37,0,0,1,4.75,1,4,4,0,0,1,1.44,3.47,25.1,25.1,0,0,1-.44,3.69l-.9,5.06a18.16,18.16,0,0,1-.88,3.42,4.74,4.74,0,0,1-1.36,2,4.9,4.9,0,0,1-2.23,1,17.54,17.54,0,0,1-3.58.29Zm1.1-3.47h1.55a6.57,6.57,0,0,0,1.65-.19,2,2,0,0,0,1.12-.78,6,6,0,0,0,.74-2.34l.9-5.06a21.56,21.56,0,0,0,.41-3,1.45,1.45,0,0,0-.64-1.41A5.49,5.49,0,0,0,30,93.43H28.47a6.55,6.55,0,0,0-1.65.18,2,2,0,0,0-1.12.78A6,6,0,0,0,25,96.73l-.9,5.06a20.79,20.79,0,0,0-.41,3,1.45,1.45,0,0,0,.64,1.41,5.45,5.45,0,0,0,2.35.35"/><path class="cls-1" d="M45.54,109.74a14,14,0,0,1-2.62-.22,3.83,3.83,0,0,1-1.82-.79,2.68,2.68,0,0,1-.86-1.29,5.47,5.47,0,0,1-.21-1.52,31,31,0,0,1,.55-4.37L44,82.27h4.27l-3.41,19.28a24.27,24.27,0,0,0-.48,3.34,1.18,1.18,0,0,0,.38,1,2.06,2.06,0,0,0,1.08.32c.47,0,1,.06,1.64.06h2L48,109.74Z"/><path class="cls-1" d="M57.59,109.74a13.93,13.93,0,0,1-2.62-.22,3.78,3.78,0,0,1-1.82-.79,2.68,2.68,0,0,1-.86-1.29,5.47,5.47,0,0,1-.21-1.52,29.52,29.52,0,0,1,.55-4.37L56,82.27h4.27L56.9,101.55a24.27,24.27,0,0,0-.48,3.34,1.15,1.15,0,0,0,.38,1,2.06,2.06,0,0,0,1.08.32c.47,0,1,.06,1.64.06h2L60,109.74Z"/><path class="cls-1" d="M76,90.22a7.72,7.72,0,0,1,4.15.85,3,3,0,0,1,1.25,2.7A25.71,25.71,0,0,1,81,97.14l-2.21,12.6H68.47A7.49,7.49,0,0,1,66,109.4a2.59,2.59,0,0,1-1.43-1.12,3.88,3.88,0,0,1-.47-2,19.58,19.58,0,0,1,.31-2.76l.21-1.17a10.62,10.62,0,0,1,.79-2.7,3.35,3.35,0,0,1,1.26-1.45,4.78,4.78,0,0,1,1.89-.6,27,27,0,0,1,3.08-.14H76.8l.1-.62a11.39,11.39,0,0,0,.24-1.75A1.12,1.12,0,0,0,76.59,94a4.42,4.42,0,0,0-2-.31H67.67l-.58-3.48Zm-6.37,16h5.58l1-5.51H70.84a1.64,1.64,0,0,0-2,1.72L68.53,104a6.66,6.66,0,0,0-.13,1.2,1.29,1.29,0,0,0,.2.74c.14.2.5.3,1.07.3"/><path class="cls-1" d="M96.11,90.22a8.26,8.26,0,0,1,4.75,1,4,4,0,0,1,1.44,3.46,25.1,25.1,0,0,1-.44,3.69l-.79,4.58a24.83,24.83,0,0,1-.69,2.85A6.08,6.08,0,0,1,99.21,108a4.66,4.66,0,0,1-2.12,1.29,14.37,14.37,0,0,1-4.08.43H84l4.82-27.47h4.27l-1.41,8Zm1.48,8.2a21.56,21.56,0,0,0,.41-3A1.46,1.46,0,0,0,97.36,94,5.65,5.65,0,0,0,95,93.7H91.08l-2.2,12.57h4.41a4.45,4.45,0,0,0,2-.37,2,2,0,0,0,1-1.15A10.35,10.35,0,0,0,96.8,103Z"/><path class="cls-1" d="M111.08,110a8.38,8.38,0,0,1-4.75-1,4,4,0,0,1-1.44-3.48,25.15,25.15,0,0,1,.44-3.68l.9-5.06a18.16,18.16,0,0,1,.88-3.42,4.71,4.71,0,0,1,1.36-2,5,5,0,0,1,2.23-1,17.37,17.37,0,0,1,3.58-.3h2.38a8.35,8.35,0,0,1,4.75,1,4,4,0,0,1,1.45,3.47,25.49,25.49,0,0,1-.45,3.69l-.9,5.06a18.16,18.16,0,0,1-.88,3.42,4.82,4.82,0,0,1-1.35,2,5,5,0,0,1-2.24,1,17.47,17.47,0,0,1-3.58.29Zm1.1-3.47h1.55a6.65,6.65,0,0,0,1.66-.19,2,2,0,0,0,1.11-.78,6,6,0,0,0,.74-2.34l.9-5.06a21.56,21.56,0,0,0,.41-3,1.45,1.45,0,0,0-.64-1.41,5.49,5.49,0,0,0-2.35-.34H114a6.55,6.55,0,0,0-1.65.18,2,2,0,0,0-1.12.78,6,6,0,0,0-.74,2.34l-.9,5.06a20.79,20.79,0,0,0-.41,3,1.45,1.45,0,0,0,.64,1.41,5.45,5.45,0,0,0,2.35.35"/><path class="cls-1" d="M124.68,109.74,127,96.52a14.11,14.11,0,0,1,1-3.75,4,4,0,0,1,1.5-1.7,5.34,5.34,0,0,1,2.18-.69,24.63,24.63,0,0,1,2.84-.16h4.75l-1.48,3.55h-3.13a4,4,0,0,0-2.37.46,2.24,2.24,0,0,0-.74,1.12,13.28,13.28,0,0,0-.33,1.41l-2.31,13Z"/><path class="cls-1" d="M151.22,90.22a7.72,7.72,0,0,1,4.15.85,3,3,0,0,1,1.25,2.7,25.71,25.71,0,0,1-.44,3.37L154,109.74H143.65a7.49,7.49,0,0,1-2.48-.34,2.63,2.63,0,0,1-1.43-1.12,3.88,3.88,0,0,1-.47-2,19.58,19.58,0,0,1,.31-2.76l.21-1.17a10.62,10.62,0,0,1,.79-2.7,3.35,3.35,0,0,1,1.26-1.45,4.78,4.78,0,0,1,1.89-.6,27.12,27.12,0,0,1,3.08-.14H152l.1-.62a11.39,11.39,0,0,0,.24-1.75,1.12,1.12,0,0,0-.55-1.07,4.42,4.42,0,0,0-2-.31h-6.91l-.59-3.48Zm-6.37,16h5.58l1-5.51H146a2.28,2.28,0,0,0-1.46.34,2.35,2.35,0,0,0-.57,1.38l-.27,1.55a6,6,0,0,0-.14,1.2,1.29,1.29,0,0,0,.2.74c.14.2.5.3,1.07.3"/><path class="cls-1" d="M167,93.7l-1.55,8.78a14.84,14.84,0,0,0-.31,2.37,1.22,1.22,0,0,0,.37,1,2,2,0,0,0,1.09.34c.47,0,1,.05,1.63.05h2.34l-1.47,3.48h-2.52a11.14,11.14,0,0,1-2.94-.31,4.17,4.17,0,0,1-1.74-.86,2.92,2.92,0,0,1-.86-1.31,5.17,5.17,0,0,1-.24-1.58,17.81,17.81,0,0,1,.38-3.2l1.55-8.78h-2.55l.58-3.48h2.59l1-5.78h4.27l-1,5.78h5.48l-.62,3.48Z"/><path class="cls-1" d="M173.7,109.74l3.41-19.52h4.26L178,109.74ZM177.59,87l.79-4.4h4.4L182,87Z"/><path class="cls-1" d="M189.7,110a8.38,8.38,0,0,1-4.75-1,4,4,0,0,1-1.44-3.48,25.15,25.15,0,0,1,.44-3.68l.9-5.06a19,19,0,0,1,.88-3.42,4.71,4.71,0,0,1,1.36-2,5,5,0,0,1,2.24-1,17.31,17.31,0,0,1,3.58-.3h2.37A8.35,8.35,0,0,1,200,91a4,4,0,0,1,1.45,3.47,24.11,24.11,0,0,1-.45,3.69l-.9,5.06a19.06,19.06,0,0,1-.87,3.42,4.51,4.51,0,0,1-3.6,3,17.47,17.47,0,0,1-3.58.29Zm1.11-3.47h1.54a6.59,6.59,0,0,0,1.66-.19,2.06,2.06,0,0,0,1.12-.78,6.39,6.39,0,0,0,.74-2.34l.89-5.06a20,20,0,0,0,.41-3,1.46,1.46,0,0,0-.63-1.41,5.54,5.54,0,0,0-2.36-.34h-1.55a6.6,6.6,0,0,0-1.65.18,2.06,2.06,0,0,0-1.12.78,6.2,6.2,0,0,0-.74,2.34l-.9,5.06a20.79,20.79,0,0,0-.41,3,1.45,1.45,0,0,0,.64,1.41,5.47,5.47,0,0,0,2.36.35"/><path class="cls-1" d="M216.55,90.22a14.23,14.23,0,0,1,3.27.31,3.54,3.54,0,0,1,1.88,1,3.26,3.26,0,0,1,.64,2.16c0,.16,0,.47-.05.94s-.21,1.56-.5,3.25l-2.07,11.81h-4.27l2.1-11.81a18.18,18.18,0,0,0,.35-2.71,1.29,1.29,0,0,0-.45-1.16,3.43,3.43,0,0,0-1.69-.29h-5l-2.79,16h-4.27l3.41-19.52Z"/><path class="cls-1" d="M7.44,151.05a13.72,13.72,0,0,1-3.83-.45A4,4,0,0,1,1.34,149a5.57,5.57,0,0,1-.76-3.1,24.66,24.66,0,0,1,.49-4.23l1.79-10a14.83,14.83,0,0,1,.89-3.28,5.46,5.46,0,0,1,1.4-2,5,5,0,0,1,2.13-1.07,13,13,0,0,1,3.18-.33h8.61l-1.58,3.82H11a4.43,4.43,0,0,0-2,.36,2.54,2.54,0,0,0-1.11,1.23,13.75,13.75,0,0,0-.77,2.92l-1.24,6.89a33.86,33.86,0,0,0-.69,4.85,2.49,2.49,0,0,0,.29,1.19,1.8,1.8,0,0,0,1.21.76,12.15,12.15,0,0,0,2.6.22h6.4l-1.62,3.82Z"/><path class="cls-1" d="M18.66,151.05,21,137.83a13.74,13.74,0,0,1,1.05-3.75,4.06,4.06,0,0,1,1.49-1.7,5.43,5.43,0,0,1,2.19-.69,22.57,22.57,0,0,1,2.84-.16h4.75l-1.48,3.55H28.71a4.06,4.06,0,0,0-2.38.46,2.38,2.38,0,0,0-.74,1.12q-.18.66-.33,1.41l-2.3,13Z"/><path class="cls-1" d="M45.37,131.29a9.75,9.75,0,0,1,3.27.43A3.34,3.34,0,0,1,50.36,133a3.81,3.81,0,0,1,.55,2.15,8.15,8.15,0,0,1-.14,1.51l-.48,2.72a5.66,5.66,0,0,1-1.41,3.22,4.54,4.54,0,0,1-3.13.91H38.17L38,144.58a9.68,9.68,0,0,0-.17,1.51,1.2,1.2,0,0,0,.55,1.17,4.67,4.67,0,0,0,2.07.31h6.91L46,151.05H39.62a18.2,18.2,0,0,1-2.38-.15,6.43,6.43,0,0,1-1.94-.56A2.94,2.94,0,0,1,34,149.19a3.9,3.9,0,0,1-.47-2.06,15.09,15.09,0,0,1,.24-2.41L35.14,137a10.1,10.1,0,0,1,1-3.24,4.32,4.32,0,0,1,2.16-1.86,12.85,12.85,0,0,1,4.68-.62Zm1.13,5.37a6.25,6.25,0,0,0,.11-.89.82.82,0,0,0-.45-.81,4.1,4.1,0,0,0-1.65-.23H42.06a4.17,4.17,0,0,0-1.49.21,1.49,1.49,0,0,0-.81.77,5.22,5.22,0,0,0-.42,1.3l-.55,3.16h5.86a1.28,1.28,0,0,0,1.48-1.27Z"/><path class="cls-1" d="M64.68,131.53a7.63,7.63,0,0,1,4.15.85,3,3,0,0,1,1.25,2.7,24.19,24.19,0,0,1-.44,3.37l-2.21,12.6H57.11a7.49,7.49,0,0,1-2.48-.34,2.67,2.67,0,0,1-1.43-1.12,3.9,3.9,0,0,1-.46-2,19.25,19.25,0,0,1,.3-2.75l.21-1.17A10.62,10.62,0,0,1,54,141a3.3,3.3,0,0,1,1.26-1.45,4.78,4.78,0,0,1,1.89-.6,27.12,27.12,0,0,1,3.08-.14h5.17l.1-.62a11.39,11.39,0,0,0,.24-1.75,1.12,1.12,0,0,0-.55-1.07,4.42,4.42,0,0,0-2-.31H56.32l-.59-3.48Zm-6.37,16h5.58l1-5.5H59.48a2.28,2.28,0,0,0-1.46.34,2.41,2.41,0,0,0-.57,1.38l-.28,1.55a6.66,6.66,0,0,0-.13,1.2,1.22,1.22,0,0,0,.21.74c.13.2.49.29,1.06.29"/><path class="cls-1" d="M80.45,135l-1.55,8.78a14.84,14.84,0,0,0-.31,2.37,1.21,1.21,0,0,0,.38,1,2,2,0,0,0,1.08.34c.47,0,1,0,1.63,0H84l-1.48,3.48H80a11.24,11.24,0,0,1-2.94-.31,4.29,4.29,0,0,1-1.74-.86,2.92,2.92,0,0,1-.86-1.31,5.17,5.17,0,0,1-.24-1.58,18.79,18.79,0,0,1,.38-3.2L76.18,135H73.63l.59-3.48H76.8l1-5.78H82.1l-1,5.78h5.47L85.92,135Z"/><path class="cls-1" d="M87.16,151.05l3.41-19.52h4.26l-3.4,19.52Zm3.89-22.72.79-4.41h4.41l-.8,4.41Z"/><polygon class="cls-1" points="111.39 131.53 115.66 131.53 105.13 151.05 99.96 151.05 97.62 131.53 101.89 131.53 103.58 146.44 111.39 131.53"/><path class="cls-1" d="M114.49,151.05l3.41-19.52h4.27l-3.41,19.52Zm3.89-22.72.79-4.41h4.41l-.79,4.41Z"/><path class="cls-1" d="M131.84,135l-1.55,8.78a14.84,14.84,0,0,0-.31,2.37,1.24,1.24,0,0,0,.38,1,2,2,0,0,0,1.08.34c.47,0,1,0,1.64,0h2.34l-1.48,3.48h-2.51a11.27,11.27,0,0,1-3-.31,4.31,4.31,0,0,1-1.73-.86,2.86,2.86,0,0,1-.87-1.31,5.17,5.17,0,0,1-.24-1.58,18.79,18.79,0,0,1,.38-3.2l1.55-8.78H125l.59-3.48h2.58l1-5.78h4.27l-1,5.78h5.47l-.62,3.48Z"/><path class="cls-1" d="M153.39,131.53h4.23l-3.51,20a9.56,9.56,0,0,1-1.13,3.34,4.34,4.34,0,0,1-2,1.73,9.62,9.62,0,0,1-3.64.54h-7.37l-.62-3.51h7a5.81,5.81,0,0,0,2.38-.3,1.87,1.87,0,0,0,.79-.89,10,10,0,0,0,.55-2l.24-1.34H145.4a8.47,8.47,0,0,1-4.75-1,4,4,0,0,1-1.44-3.48,24.86,24.86,0,0,1,.44-3.68l1.66-9.37h4.26l-1.65,9.37a20.43,20.43,0,0,0-.41,3,1.45,1.45,0,0,0,.64,1.41,5.49,5.49,0,0,0,2.35.34h4.41Z"/><rect class="cls-2" x="-1355.2" y="-85.31" width="1700.79" height="765.35"/></svg>