<svg id="图层_1" data-name="图层 1" xmlns="http://www.w3.org/2000/svg" viewBox="0 0 444.69 437.98"><defs><style>.cls-1{fill:#fff;}</style></defs><title>slogan</title><path class="cls-1" d="M336,31.53H286.18l-4.83,33.26h49.83ZM324.38,56.92H290.44L293,39.4h33.93Z"/><path class="cls-1" d="M274.85,108.84h50l4.82-33.48H279.67Zm11.64-25.61h34.15L318.08,101H283.93Z"/><path class="cls-1" d="M405.59,31.53H354.1l-4.83,33.26h51.34ZM393.83,56.92H358.37l2.54-17.52h35.55Z"/><path class="cls-1" d="M342.73,108.84h51.36l5.11-33.48H347.84ZM354.6,83.23H390L387.33,101H351.89Z"/><polygon class="cls-1" points="435.99 20.95 409.89 0 407.51 13.08 263.91 13.08 262.8 20.95 435.99 20.95"/><polygon class="cls-1" points="245.48 141.77 244.38 149.63 319.03 149.63 323.43 119.42 256.59 119.42 269.84 27.95 245.31 50.83 257.99 54.93 247.5 127.28 314.34 127.28 312.23 141.77 245.48 141.77"/><polygon class="cls-1" points="254.44 183.43 252.06 170.35 225.96 191.3 312.95 191.3 317.58 160 242.92 160 241.81 167.86 308.46 167.86 306.16 183.43 254.44 183.43"/><polygon class="cls-1" points="225.96 209.96 417.36 209.96 418.47 202.09 227.07 202.09 225.96 209.96"/><polygon class="cls-1" points="342.24 167.86 411.02 167.86 412.12 160 335.45 160 330.82 191.3 420.09 191.3 421.17 183.43 339.93 183.43 342.24 167.86"/><polygon class="cls-1" points="409.88 119.42 341.3 119.42 336.9 149.63 413.58 149.63 414.69 141.77 346 141.77 348.11 127.28 416.68 127.28 430.57 31.53 422.62 31.53 409.88 119.42"/><path class="cls-1" d="M192.16,9.24c-57.93,8.41-105.51,13-133.49,15.33l-2.16-12-30,22.27s78.06-4.74,164.59-17.46Z"/><path class="cls-1" d="M188.33,39.5l1-8.09c-27.28,4-67.05,8.53-67.05,8.53l-8,58.7h93.42l-26.09-21L179.3,90.77H123.36L129.29,47c9.2-1.08,37.46-4.46,59-7.54"/><path class="cls-1" d="M29.29,48l-1.12,8c8.79-.65,46.7-3.47,66.35-5.42L89,90.77H10.83L9.72,98.64H95.81l7.89-57C84.85,43.86,45.75,46.86,29.29,48"/><polygon class="cls-1" points="6.76 119.68 67.18 119.68 68.28 111.81 7.87 111.81 6.76 119.68"/><polygon class="cls-1" points="99.21 209.96 107.15 209.96 119.47 119.91 200.36 119.91 201.47 112.04 112.6 112.04 99.21 209.96"/><polygon class="cls-1" points="82.77 133.71 72.09 209.96 80.04 209.96 94.5 106.83 70.02 129.69 82.77 133.71"/><path class="cls-1" d="M59.7,357.85,28.46,370l10.3,8.48C22.2,406.86,4.38,431.92,0,438H9.66c26.24-36.75,50-80.13,50-80.13"/><path class="cls-1" d="M181.86,409H102.05a10.63,10.63,0,0,1-7.23-2.33c53-32.11,89.57-67,118.59-113h-9.15C170.63,348,117.39,383.53,82.35,404.94c2.13,3.74,5.57,11.9,19.7,11.9H210.34l-26.09-21Z"/><path class="cls-1" d="M72.16,417.35,57,392.38l-3.32,5.77C47.13,409.57,33.33,431.81,29.48,438h9.26c4.64-7.49,12.76-20.67,18.42-30.19l8.2,13.51c.72,1.25,10,16.68,26.86,16.68H199.55l1.1-7.86H92.22c-12.55,0-20-12.65-20.06-12.77"/><path class="cls-1" d="M74.87,383.86l3.45,7.07c34.38-17.88,76-52.36,108.32-97.31H41l-1.1,7.87H170.74S132.59,353,74.87,383.86"/><polygon class="cls-1" points="119.84 281.09 106.33 241.11 98.02 241.11 108.88 273.22 64.41 273.22 62.03 260.14 35.93 281.09 119.84 281.09"/><polygon class="cls-1" points="205.87 281.09 206.97 273.22 145.97 273.22 134.2 241.11 125.82 241.11 140.47 281.09 205.87 281.09"/><path class="cls-1" d="M319.88,237.46l-32.39,4.82s4,5.32,8.06,10.69C282,264.84,267,272.27,258.76,275.82l-2.15,9.36c43.92-16.43,63.27-47.72,63.27-47.72"/><polygon class="cls-1" points="416.21 300.67 335.19 300.67 334.08 308.54 444.69 308.54 418.59 287.59 416.21 300.67"/><path class="cls-1" d="M241.22,362.39l-1.94,9.2a225.67,225.67,0,0,0,28.11-12.77l-12.67,79.05h8l15.14-94.48-7.31,4.53a202.48,202.48,0,0,1-29.3,14.47"/><path class="cls-1" d="M327.82,291.61c-10.33,17.57-30.85,37.05-31.07,37.26l-1,.94L279.63,437.87h8l15.55-104.23c4.74-4.59,24.68-24.45,33.66-42Z"/><path class="cls-1" d="M310,291.61h-9.34c-15.37,22.46-42.05,37.24-53.52,42.86l-2,9.61c5.19-2.21,45.59-20.15,64.89-52.47"/><polygon class="cls-1" points="374.09 417.37 388.2 320.85 331.65 320.85 330.55 328.72 379.1 328.72 367.29 409.5 352.95 409.5 350.57 396.42 324.47 417.37 374.09 417.37"/><polygon class="cls-1" points="389.41 430.12 339.13 430.12 341.61 437.98 396.24 437.98 411.8 328.72 434.98 328.72 436.09 320.85 404.97 320.85 389.41 430.12"/><polygon class="cls-1" points="434.81 267.47 345.84 267.47 344.73 275.34 433.7 275.34 434.81 267.47"/><polygon class="cls-1" points="437.64 247.29 348.67 247.29 347.57 255.16 436.54 255.16 437.64 247.29"/><path class="cls-1" d="M343.42,241.87h-9.11c-22.38,39.31-66.25,55.69-81.63,60.38l-2,8.71c45.41-12.42,79.21-41.47,92.74-69.09"/></svg>