<svg id="图层_1" data-name="图层 1" xmlns="http://www.w3.org/2000/svg" viewBox="0 0 153.87 86.8"><defs><style>.cls-1{fill:#fff;}</style></defs><title>tech-for-good</title><polygon class="cls-1" points="13.9 43.14 9.65 43.14 7.02 58.06 3.9 58.06 6.54 43.14 2.26 43.14 2.73 40.58 14.36 40.58 13.9 43.14"/><path class="cls-1" d="M24.45,47.39a5.64,5.64,0,0,1-.09,1L24,50.23C23.67,52.29,22.9,53,21,53H15.91l-.12.72a6.26,6.26,0,0,0-.11,1c0,.81.41,1,1.75,1h4.64l-.94,2.33H16.88c-3,0-4.07-.76-4.07-2.63A9.5,9.5,0,0,1,13,53.81l.9-5.17c.55-3.19,1.89-3.83,5.28-3.83h1.57c2.43,0,3.72.64,3.72,2.58m-2.89.42c0-.56-.34-.69-1.4-.69H18.52c-1.06,0-1.57.13-1.83,1.52l-.37,2.12h3.93a.85.85,0,0,0,1-.85l.26-1.5a4.25,4.25,0,0,0,.06-.6"/><path class="cls-1" d="M25.67,55a16.5,16.5,0,0,1,.3-2.47l.54-3c.64-3.72,1.54-4.57,5.4-4.57h4.27l-1,2.33H31.75c-1.69,0-2,.46-2.36,2.19l-.55,3.07a11.93,11.93,0,0,0-.28,2c0,1,.51,1.18,2,1.18h4l-1,2.33H29.83c-2.93,0-4.16-.83-4.16-3"/><path class="cls-1" d="M49.34,47.32A18.54,18.54,0,0,1,49,50.14l-1.41,7.92H44.7l1.36-7.71a14.34,14.34,0,0,0,.28-2c0-.72-.37-1-1.92-1H41.51L39.64,58.06H36.78L40,39.64h2.86L41.93,45h3.46c2.93,0,4,.64,4,2.35"/><path class="cls-1" d="M63.19,44.16l-.14.81h3.42l-.42,2.33H62.64l-1.9,10.76H57.88L59.77,47.3H58L58.43,45h1.76l.14-.81c.6-3.39,1.24-4.52,4.64-4.52h2.65L67.23,42H65.59c-1.87,0-2.05.21-2.4,2.19"/><path class="cls-1" d="M66.67,55.2A15.53,15.53,0,0,1,67,52.72l.6-3.39c.64-3.69,1.54-4.52,5.4-4.52h1.59c2.93,0,4.16.8,4.16,3a16.5,16.5,0,0,1-.3,2.47l-.6,3.4c-.65,3.69-1.55,4.52-5.41,4.52H70.83c-2.93,0-4.16-.81-4.16-3m5.94.69c1.75,0,2-.53,2.35-2.22l.6-3.39a11.93,11.93,0,0,0,.28-2c0-1-.51-1.17-2-1.17h-1c-1.75,0-2.05.53-2.35,2.21l-.6,3.39a11.93,11.93,0,0,0-.28,2c0,1,.49,1.18,2,1.18Z"/><path class="cls-1" d="M81.52,49.19C82.14,45.61,83,45,86.6,45h3.19l-1,2.38h-2.1c-1.66,0-2,.27-2.31,2l-1.54,8.71H80Z"/><path class="cls-1" d="M106.73,48.8h3.09L109,53.72c-.4,2.24-.76,3.35-1.57,3.92a5.52,5.52,0,0,1-3.19.58h-3.46c-3.23,0-4.62-.88-4.62-3.44a15.38,15.38,0,0,1,.35-2.84l1.22-6.86c.62-3.53,1.76-4.5,5.13-4.5h7.73l-1,2.52h-6.32c-1.85,0-2.2.71-2.61,3L99.69,51a26.24,26.24,0,0,0-.44,3.25c0,1.27.79,1.46,2.72,1.46h3.54Z"/><path class="cls-1" d="M111.62,55.2a15.53,15.53,0,0,1,.31-2.48l.6-3.39c.64-3.69,1.54-4.52,5.4-4.52h1.59c2.93,0,4.16.8,4.16,3a16.5,16.5,0,0,1-.3,2.47l-.6,3.4c-.65,3.69-1.55,4.52-5.41,4.52h-1.59c-2.93,0-4.16-.81-4.16-3m5.94.69c1.75,0,2-.53,2.35-2.22l.6-3.39a11.93,11.93,0,0,0,.28-2c0-1-.51-1.17-2-1.17h-1c-1.75,0-2,.53-2.35,2.21l-.6,3.39a11.93,11.93,0,0,0-.28,2c0,1,.49,1.18,2,1.18Z"/><path class="cls-1" d="M125.36,55.2a15.21,15.21,0,0,1,.3-2.48l.6-3.39c.65-3.69,1.55-4.52,5.4-4.52h1.6c2.93,0,4.15.8,4.15,3a15.24,15.24,0,0,1-.3,2.47l-.6,3.4c-.65,3.69-1.54,4.52-5.4,4.52h-1.59c-2.94,0-4.16-.81-4.16-3m5.93.69c1.76,0,2.06-.53,2.36-2.22l.6-3.39a13.15,13.15,0,0,0,.28-2c0-1-.51-1.17-2-1.17h-1c-1.76,0-2.06.53-2.36,2.21l-.6,3.39a12.74,12.74,0,0,0-.27,2c0,1,.48,1.18,2,1.18Z"/><path class="cls-1" d="M152.35,39.64l-3.26,18.42H143.3c-2.93,0-4.16-.83-4.16-3a16.5,16.5,0,0,1,.3-2.47l.54-3.07c.62-3.67,1.56-4.52,5.4-4.52h3.16l1-5.33Zm-5.7,16.09,1.48-8.43h-2.91c-1.69,0-2.06.46-2.36,2.19l-.55,3.12a10.78,10.78,0,0,0-.26,1.94c0,1,.53,1.18,2,1.18Z"/><path class="cls-1" d="M4.63,76.4c-.69,2.91-1.54,6-2.38,8.7H0a86.31,86.31,0,0,0,2.67-8.7ZM7.8,74.57,6.13,86.8H3.77L5.51,74.57H1.92l.26-1.89H5.77l.4-2.84c-1.1.11-2.23.22-3.44.31L3,68.07c3.17-.26,5.51-.5,8.68-.94l-.28,2.13c-1,.14-1.94.25-2.91.36l-.42,3.06h3.22L11,74.57Zm.51,1.83h1.92c-.13,2.82-.27,5.82-.31,8.7H7.69c.22-3,.4-5.83.62-8.7m12.41,4.54-1.83.24L18.1,86.8H15.67l.75-5.29-5.86.8.31-2,5.86-.79L18.52,67h2.36l-1.7,12.19L21,78.91ZM13.8,73.69a45.42,45.42,0,0,0,2.56,4.76H13.58a43,43,0,0,1-2.07-4.76Zm.66-.64a43.77,43.77,0,0,1-2-4.62h2.43a39.27,39.27,0,0,0,2.33,4.62Z"/><path class="cls-1" d="M48.59,78.74,47.47,86.8H43.23l-.61-1.94h2.73l.75-5.31L44,80.19l-1-1.81c1.14-.3,2.31-.63,3.46-1L47,73.08H44.09l.29-1.94h2.89L47.86,67h2.36l-.57,4.17h2.14l-.29,1.94H49.38l-.5,3.54c.81-.24,1.61-.5,2.4-.77l-.31,2Zm10.34-6.59-.4,3.06H61.8c.72,0,.88.25.88.71a3.12,3.12,0,0,1-.55,1.83A27,27,0,0,1,58,82.28c1.3,1.48,2.8,3,4.38,4.52H58.89a38.78,38.78,0,0,1-2.61-3,43.72,43.72,0,0,1-4.27,3H48.33A58.15,58.15,0,0,0,55,82.09a49.07,49.07,0,0,1-2.77-4.15h2.53a29.72,29.72,0,0,0,1.9,2.67,21,21,0,0,0,3.06-3.33c.09-.13,0-.17-.09-.17H51.72l.29-1.9h4.08l.39-3.06h-4.3l.29-1.94h4.28L57.19,67h2.45l-.44,3.24h4.87l-.27,1.94Z"/><path class="cls-1" d="M105.76,71l-2.21,15.8H97.8l-.58-2h4.08l1.88-13c0-.29-.09-.31-.27-.31H90.15L88.1,86.8H85.58L88,69.42h6c.53-.91,1-1.74,1.28-2.45h2.86c-.41.86-.86,1.79-1.23,2.45h7.58c1.06,0,1.5.33,1.33,1.58M99.45,82.2H90.94l1.13-8.31h7.34c1,0,1.17.42,1.06,1.23Zm-1.72-6.53H94.25l-.66,4.74h3.7l.64-4.49c0-.16,0-.25-.2-.25"/><path class="cls-1" d="M140.28,70.74l-.15,1.06h6.5l-.31,1.72h-6.43l-.16,1.21h8.11l-.28,1.76h-8.07l-.22,1.63h1.85c.22-.44.44-.86.62-1.3h2.71c-.2.44-.44.86-.66,1.3h4.12l-.24,1.76H128l.25-1.76h3.88c-.13-.44-.25-.86-.36-1.3h2.56l.4,1.3h1.92l.24-1.63H128.8l.28-1.76h8.09l.18-1.21h-6.57l.31-1.72h6.5l.16-1.06H130l.29-1.76h3.93c-.36-.64-.71-1.37-1-2h2.71c.27.5.66,1.32,1.06,2h4.56c.51-.62,1.06-1.41,1.5-2h2.87c-.44.59-1,1.34-1.5,2h3.86l-.29,1.76ZM144.93,82l-.63,4.76H129.48l.88-5.93h13.43c1.06,0,1.28.25,1.14,1.17m-2.66.51h-9.75l-.37,2.57h10l.26-2.35c0-.16,0-.22-.15-.22"/><polygon class="cls-1" points="118.55 0 115.58 16.31 2.23 16.31 2.23 28.36 153.87 28.36 118.55 0"/></svg>