<svg id="图层_1" data-name="图层 1" xmlns="http://www.w3.org/2000/svg" viewBox="0 0 175.37 182.74"><defs><style>.cls-1{fill:#fff;}</style></defs><title>timeline</title><polygon class="cls-1" points="133.65 68.94 130.35 87.05 4.52 87.05 4.52 100.42 172.86 100.42 133.65 68.94"/><path class="cls-1" d="M28.67.41l-9,51.5H11.18L18.6,9.53A137,137,0,0,1,6.29,16.67L2.68,10,20.23.41Z"/><path class="cls-1" d="M76.23,9.19a49.21,49.21,0,0,1-.88,8l-3.82,21.5C69.7,49,66.36,51.91,56.5,51.91H42.21l-1.29-7.55H56c5.45,0,6.47-2.18,7.69-9l.68-3.67H53.37c-8,0-11.84-2.66-11.84-9.19A27.22,27.22,0,0,1,42,18l1.22-6.87C44.8,2.31,48.67,0,57.11,0h5.44C72.9,0,76.23,2.31,76.23,9.19M65.55,24.43l1.56-8.71a37.21,37.21,0,0,0,.61-5.11c0-3.06-1.63-3.13-6.66-3.13H57.59c-4.9,0-5.65,1.23-6.47,5.86l-.88,5A16.53,16.53,0,0,0,50,21.23c0,3.2,1.76,3.2,5.51,3.2Z"/><path class="cls-1" d="M124.74,9.19a49.21,49.21,0,0,1-.88,8l-3.81,21.5c-1.84,10.34-5.17,13.26-15,13.26H90.72l-1.29-7.55h15c5.44,0,6.46-2.18,7.69-9l.68-3.67h-11c-8,0-11.84-2.66-11.84-9.19A28.31,28.31,0,0,1,90.52,18l1.22-6.87C93.31,2.31,97.19,0,105.62,0h5.45c10.34,0,13.67,2.31,13.67,9.19M114.06,24.43l1.56-8.71a36,36,0,0,0,.62-5.11c0-3.06-1.64-3.13-6.67-3.13H106.1c-4.9,0-5.65,1.23-6.46,5.86l-.89,5a17.59,17.59,0,0,0-.27,2.86c0,3.2,1.77,3.2,5.51,3.2Z"/><path class="cls-1" d="M175.37,8.78a24.24,24.24,0,0,1-.48,4.62L174.21,17c-1,4.9-3.4,6.87-6.6,7.69,3.2.95,4.69,2.92,4.69,6.33a34.31,34.31,0,0,1-.74,6l-.75,4.29c-1.5,8.64-6.06,10.61-14.56,10.61h-9.53c-7.82,0-10.82-2.58-10.82-8.43a25,25,0,0,1,.48-4.7l.82-4.62c1.08-6.26,3.6-9,8.43-10.07-3.06-.82-4.56-2.73-4.56-6.47a24.68,24.68,0,0,1,.41-4.15l.68-3.88C143.52,1.77,147,.41,154.75.41h7.89c8.78,0,12.73,1.63,12.73,8.37M163.19,32.25c0-3.13-1.64-3.54-6.13-3.54h-3.81c-5.58,0-6.32,1.43-7.14,6.19l-.48,2.73a23.94,23.94,0,0,0-.47,3.81c0,2.72,1.43,3.19,5.24,3.19h4.76c5.37,0,6.33-1.43,7.07-5.78l.68-3.88a14.76,14.76,0,0,0,.28-2.72M149.78,18.3c0,2.79,1.64,3.2,5,3.2h4.08c4.42,0,5.65-.95,6.4-4.9l.54-2.79a14.84,14.84,0,0,0,.27-2.65c0-3-1.36-3.47-5.44-3.47h-4.22c-4.22,0-5.17.88-5.85,4.76L150,16.06a13.93,13.93,0,0,0-.21,2.24"/><path class="cls-1" d="M38,136.48a41.32,41.32,0,0,1-.89,7.35l-1.22,6.87c-1,5.51-2,6.26-7.49,7.82l-11.09,3.13c-5.51,1.57-5.71,1.91-6.39,5.78l-1.3,7.28H32.8l-3.13,7.56H0l2.65-15.11c1.64-9.18,2.59-9.52,13-12.52l7.62-2.17c3.81-1.09,4.29-1.64,4.76-4.22l.82-4.63a28.58,28.58,0,0,0,.47-3.33c0-1.77-1.08-2-4.62-2H9.05l-1.36-7.49H28c7.76,0,9.94,1.5,9.94,5.72"/><path class="cls-1" d="M43.27,172.61a45.13,45.13,0,0,1,1-8.37l3.67-20.62c1.84-10.41,5.24-13.27,15.11-13.27h7.82c9.53,0,13.61,2.52,13.61,10.14a52.71,52.71,0,0,1-1,8.3l-3.68,20.69c-1.83,10.41-5,13.26-15,13.26h-7.9c-9.45,0-13.54-2.58-13.54-10.13m20.55,2.72c5.44,0,6.53-2.11,7.69-8.92L74,151.58a74.9,74.9,0,0,0,1.36-9.52c0-3.75-2.31-4.29-8-4.29H63.82c-5.44,0-6.39,2.11-7.62,8.91l-2.58,14.77A78.75,78.75,0,0,0,52.26,171c0,3.74,2.38,4.29,8.09,4.29Z"/><path class="cls-1" d="M125.94,136.48a42.13,42.13,0,0,1-.88,7.35l-1.23,6.87c-1,5.51-2,6.26-7.48,7.82l-11.09,3.13c-5.51,1.57-5.72,1.91-6.4,5.78l-1.29,7.28h23.2l-3.13,7.56H88l2.65-15.11c1.63-9.18,2.59-9.52,13-12.52l7.62-2.17c3.81-1.09,4.28-1.64,4.76-4.22l.82-4.63a28.58,28.58,0,0,0,.47-3.33c0-1.77-1.09-2-4.63-2H97l-1.36-7.49H116c7.76,0,9.93,1.5,9.93,5.72"/><path class="cls-1" d="M131.25,172.61a45.78,45.78,0,0,1,.95-8.37l3.68-20.62c1.83-10.41,5.24-13.27,15.1-13.27h7.83c9.52,0,13.6,2.52,13.6,10.14a52.71,52.71,0,0,1-1,8.3l-3.67,20.69c-1.84,10.41-5,13.26-15,13.26h-7.89c-9.46,0-13.54-2.58-13.54-10.13m20.55,2.72c5.44,0,6.53-2.11,7.69-8.92L162,151.58a74.9,74.9,0,0,0,1.36-9.52c0-3.75-2.31-4.29-8-4.29H151.8c-5.44,0-6.4,2.11-7.62,8.91l-2.59,14.77a78.75,78.75,0,0,0-1.36,9.59c0,3.74,2.38,4.29,8.1,4.29Z"/></svg>